<?xml version="1.0" encoding="utf-8"?>
<!-- Generator: Adobe Illustrator 24.2.0, SVG Export Plug-In . SVG Version: 6.00 Build 0)  -->
<svg version="1.1" xmlns="http://www.w3.org/2000/svg" xmlns:xlink="http://www.w3.org/1999/xlink" x="0px" y="0px"
	 viewBox="0 0 805 805" style="enable-background:new 0 0 805 805;" xml:space="preserve">
<style type="text/css">
	.st0{display:none;}
	.st1{stroke:#000000;stroke-miterlimit:10;}
	.st2{display:inline;fill:#E0E0E0;}
	.st3{display:inline;fill:url(#SVGID_1_);}
	.st4{display:inline;fill-rule:evenodd;clip-rule:evenodd;fill:#FFFFFF;}
	.st5{display:inline;fill:#FFFFFF;}
	.st6{display:inline;fill:url(#SVGID_2_);}
	.st7{display:inline;fill:url(#SVGID_3_);}
	.st8{fill:#1877F2;}
	.st9{fill:#FFFFFF;}
	.st10{fill:#6666F9;}
	.st11{fill:#3CD4A1;}
</style>
<g id="Layer_7">
	<rect x="2.3" y="-1.5" class="st0" width="800" height="800"/>
	<circle class="st1" cx="401" cy="400" r="403.8"/>
</g>
<g id="Layer_5">
</g>
<g id="Layer_4_1_">
</g>
<g id="Layer_3_1_">
</g>
<g id="Layer_2" class="st0">
	<path class="st2" d="M650.9,151.7C584.1,84.9,495.3,48.1,400.8,48.1c-194.9,0-353.4,158.5-353.5,353.4
		c0,62.3,16.3,123.1,47.2,176.7L44.3,761.3l187.4-49.1c51.6,28.2,109.8,43,168.9,43h0.2h0c194.8,0,353.4-158.6,353.5-353.4
		C754.3,307.3,717.6,218.5,650.9,151.7L650.9,151.7z M400.8,695.5h-0.1c-52.7,0-104.4-14.2-149.6-41l-10.7-6.4l-111.2,29.2
		l29.7-108.4l-7-11.1C122.5,511,106.9,457,107,401.5c0.1-162,131.9-293.7,293.9-293.7c78.5,0,152.3,30.6,207.7,86.1
		c55.5,55.5,86,129.3,86,207.8C694.5,563.7,562.7,695.5,400.8,695.5z"/>
	
		<linearGradient id="SVGID_1_" gradientUnits="userSpaceOnUse" x1="245.0877" y1="439.3608" x2="245.0877" y2="772.8548" gradientTransform="matrix(2.0408 0 0 -2.0408 -100.876 1637.5909)">
		<stop  offset="0" style="stop-color:#20B038"/>
		<stop  offset="1" style="stop-color:#60D66A"/>
	</linearGradient>
	<path class="st3" d="M60.5,740.9l47.9-174.8C78.9,515,63.3,457,63.4,397.6C63.4,211.6,214.8,60.4,400.7,60.4
		c90.2,0,175,35.2,238.6,98.9c63.7,63.7,98.8,148.5,98.7,238.6c-0.1,186-151.4,337.2-337.3,337.2c0,0,0,0,0,0h-0.2
		c-56.5,0-111.9-14.2-161.2-41L60.5,740.9L60.5,740.9z"/>
	<path class="st4" d="M313.4,251.4c-6.5-14.5-13.4-14.8-19.6-15.1c-5.1-0.2-10.9-0.2-16.7-0.2c-5.8,0-15.3,2.2-23.3,10.9
		c-8,8.7-30.6,29.9-30.6,72.8c0,43,31.3,84.5,35.7,90.3C263.2,416,319.3,507,408,542c73.8,29.1,88.8,23.3,104.8,21.8
		c16-1.5,51.7-21.1,58.9-41.5c7.3-20.4,7.3-37.9,5.1-41.5c-2.2-3.6-8-5.8-16.7-10.2c-8.7-4.4-51.7-25.5-59.7-28.4
		c-8-2.9-13.8-4.4-19.6,4.4c-5.8,8.7-22.5,28.4-27.6,34.2c-5.1,5.8-10.2,6.6-18.9,2.2c-8.7-4.4-36.9-13.6-70.2-43.3
		c-26-23.1-43.5-51.7-48.6-60.5c-5.1-8.7-0.5-13.5,3.8-17.8c3.9-3.9,8.7-10.2,13.1-15.3c4.4-5.1,5.8-8.7,8.7-14.6
		c2.9-5.8,1.5-10.9-0.7-15.3C338.2,311.9,321.2,268.7,313.4,251.4L313.4,251.4z"/>
	<path class="st5" d="M648,150.6c-66-66-153.7-102.4-247.2-102.5c-192.6,0-349.4,156.7-349.5,349.3c0,61.6,16.1,121.7,46.6,174.7
		l-49.6,181l185.3-48.6c51,27.8,108.5,42.5,167,42.5h0.1h0c192.6,0,349.4-156.7,349.5-349.3C750.3,304.4,713.9,216.6,648,150.6
		L648,150.6z M400.8,688.1h-0.1c-52.1,0-103.2-14-147.8-40.5l-10.6-6.3l-109.9,28.8L161.6,563l-6.9-11
		c-29.1-46.2-44.4-99.7-44.4-154.5c0.1-160.1,130.4-290.3,290.6-290.3c77.6,0,150.5,30.3,205.3,85.2c54.8,54.9,85,127.8,85,205.4
		C691.1,557.8,560.9,688.1,400.8,688.1z"/>
</g>
<g id="Layer_8" class="st0">
	
		<radialGradient id="SVGID_2_" cx="-78.3647" cy="166.1062" r="354.9333" gradientTransform="matrix(0 -1.982 -1.8439 0 539.8781 654.256)" gradientUnits="userSpaceOnUse">
		<stop  offset="0" style="stop-color:#FFDD55"/>
		<stop  offset="0.1" style="stop-color:#FFDD55"/>
		<stop  offset="0.5" style="stop-color:#FF543E"/>
		<stop  offset="1" style="stop-color:#C837AB"/>
	</radialGradient>
	<path class="st6" d="M400.1,45.1c-148.2,0-191.6,0.2-200,0.9c-30.4,2.5-49.3,7.3-70,17.6c-15.9,7.9-28.4,17-40.8,29.9
		c-22.5,23.4-36.2,52.1-41.1,86.3c-2.4,16.6-3.1,20-3.2,104.8c-0.1,28.3,0,65.5,0,115.4c0,148.1,0.2,191.4,0.9,199.8
		c2.5,29.6,7.1,48.2,16.9,68.6c18.8,39,54.7,68.3,96.9,79.2c14.6,3.8,30.8,5.8,51.5,6.8c8.8,0.4,98.4,0.7,188.1,0.7
		s179.3-0.1,187.9-0.5c24-1.1,38-3,53.4-7c42.5-11,77.8-39.8,96.9-79.3c9.6-19.9,14.5-39.2,16.7-67.3c0.5-6.1,0.7-103.6,0.7-201
		c0-97.4-0.2-194.7-0.7-200.8c-2.2-28.5-7.1-47.7-17.1-67.9c-8.2-16.6-17.2-29-30.4-41.6c-23.5-22.4-52.2-36.1-86.4-41
		c-16.6-2.4-19.9-3.1-104.7-3.3H400.1z"/>
	
		<radialGradient id="SVGID_3_" cx="298.705" cy="281.0021" r="354.9333" gradientTransform="matrix(0.1739 0.8687 3.5818 -0.7172 -1132.3783 38.268)" gradientUnits="userSpaceOnUse">
		<stop  offset="0" style="stop-color:#3771C8"/>
		<stop  offset="0.128" style="stop-color:#3771C8"/>
		<stop  offset="1" style="stop-color:#6600FF;stop-opacity:0"/>
	</radialGradient>
	<path class="st7" d="M400.1,45.1c-148.2,0-191.6,0.2-200,0.9c-30.4,2.5-49.3,7.3-70,17.6c-15.9,7.9-28.4,17-40.8,29.9
		c-22.5,23.4-36.2,52.1-41.1,86.3c-2.4,16.6-3.1,20-3.2,104.8c-0.1,28.3,0,65.5,0,115.4c0,148.1,0.2,191.4,0.9,199.8
		c2.5,29.6,7.1,48.2,16.9,68.6c18.8,39,54.7,68.3,96.9,79.2c14.6,3.8,30.8,5.8,51.5,6.8c8.8,0.4,98.4,0.7,188.1,0.7
		s179.3-0.1,187.9-0.5c24-1.1,38-3,53.4-7c42.5-11,77.8-39.8,96.9-79.3c9.6-19.9,14.5-39.2,16.7-67.3c0.5-6.1,0.7-103.6,0.7-201
		c0-97.4-0.2-194.7-0.7-200.8c-2.2-28.5-7.1-47.7-17.1-67.9c-8.2-16.6-17.2-29-30.4-41.6c-23.5-22.4-52.2-36.1-86.4-41
		c-16.6-2.4-19.9-3.1-104.7-3.3H400.1z"/>
	<path class="st5" d="M400,137.9c-71.2,0-80.1,0.3-108.1,1.6c-27.9,1.3-46.9,5.7-63.6,12.2c-17.2,6.7-31.9,15.6-46.4,30.2
		c-14.6,14.6-23.5,29.2-30.3,46.4c-6.5,16.7-10.9,35.7-12.2,63.6c-1.3,28-1.6,36.9-1.6,108.1s0.3,80.1,1.6,108
		c1.3,27.9,5.7,46.9,12.2,63.6c6.7,17.2,15.7,31.9,30.2,46.4c14.6,14.6,29.2,23.6,46.4,30.3c16.7,6.5,35.7,10.9,63.6,12.2
		c28,1.3,36.9,1.6,108.1,1.6c71.2,0,80.1-0.3,108.1-1.6c27.9-1.3,47-5.7,63.6-12.2c17.2-6.7,31.8-15.7,46.4-30.3
		c14.6-14.6,23.5-29.2,30.3-46.4c6.4-16.7,10.9-35.7,12.2-63.6c1.3-28,1.6-36.9,1.6-108.1s-0.3-80.1-1.6-108.1
		c-1.3-27.9-5.7-46.9-12.2-63.6c-6.7-17.2-15.7-31.9-30.3-46.4c-14.6-14.6-29.2-23.5-46.4-30.2c-16.7-6.5-35.8-10.9-63.7-12.2
		C480,138.2,471.1,137.9,400,137.9L400,137.9z M376.4,185.2c7,0,14.8,0,23.5,0c70,0,78.3,0.3,105.9,1.5c25.6,1.2,39.4,5.4,48.7,9
		c12.2,4.8,21,10.4,30.1,19.6c9.2,9.2,14.9,17.9,19.6,30.1c3.6,9.2,7.9,23.1,9,48.7c1.3,27.6,1.5,35.9,1.5,105.9
		s-0.3,78.2-1.5,105.9c-1.2,25.6-5.4,39.4-9,48.7c-4.8,12.2-10.4,20.9-19.6,30.1c-9.2,9.2-17.9,14.9-30.1,19.6
		c-9.2,3.6-23.1,7.9-48.7,9c-27.6,1.3-35.9,1.5-105.9,1.5c-70,0-78.3-0.3-105.9-1.5c-25.6-1.2-39.4-5.4-48.7-9
		c-12.2-4.8-21-10.4-30.1-19.6s-14.9-17.9-19.6-30.1c-3.6-9.2-7.9-23.1-9-48.7c-1.3-27.6-1.5-35.9-1.5-105.9s0.3-78.2,1.5-105.9
		c1.2-25.6,5.4-39.4,9-48.7c4.8-12.2,10.4-21,19.6-30.1s17.9-14.9,30.1-19.6c9.2-3.6,23.1-7.9,48.7-9
		C318.2,185.5,327.6,185.1,376.4,185.2L376.4,185.2z M539.9,228.7c-17.4,0-31.5,14.1-31.5,31.4c0,17.4,14.1,31.5,31.5,31.5
		s31.5-14.1,31.5-31.5S557.2,228.7,539.9,228.7L539.9,228.7z M400,265.4c-74.3,0-134.6,60.3-134.6,134.6S325.6,534.6,400,534.6
		c74.3,0,134.6-60.2,134.6-134.6S474.3,265.4,400,265.4L400,265.4z M400,312.7c48.2,0,87.4,39.1,87.4,87.4
		c0,48.2-39.1,87.4-87.4,87.4c-48.3,0-87.4-39.1-87.4-87.4C312.6,351.8,351.7,312.7,400,312.7z"/>
</g>
<g id="Layer_6_1_">
	<path class="st8" d="M755.5,400.4c0-196.1-158.9-355-355-355s-355,158.9-355,355C45.5,577.5,175.3,724.4,345,751V503h-90.1V400.4
		H345v-78.2c0-89,53-138.1,134.1-138.1c38.8,0,79.5,6.9,79.5,6.9v87.4h-44.8c-44.1,0-57.9,27.4-57.9,55.4v66.6h98.5L538.7,503H456
		V751C625.7,724.4,755.5,577.5,755.5,400.4z"/>
	<path class="st9" d="M538.7,503l15.7-102.6H456v-66.6c0-28.1,13.8-55.4,57.9-55.4h44.8V191c0,0-40.6-6.9-79.5-6.9
		C398,184,345,233.2,345,322.1v78.2h-90.1V503H345V751c36.8,5.8,74.2,5.8,110.9,0V503H538.7z"/>
</g>
<g id="Layer_1">
	<path class="st10" d="M802.5,400c0,54.3-10.6,107-31.7,156.7c-20.3,48-49.3,91-86.3,127.9c-37,37-80,66-127.9,86.3
		c-49.6,21-102.3,31.7-156.7,31.7c-30.1,0-59.7-3.3-88.5-9.7c8-9.4,15.8-19,23.3-28.9c21.2,3.8,43,5.8,65.2,5.8
		c203.9,0,369.7-165.8,369.7-369.7S603.9,30.3,400,30.3c-9.1,0-18.1,0.3-27.1,1c-6.4-10.5-13.1-20.8-20.2-31.1
		c15.5-1.8,31.4-2.7,47.3-2.7c54.3,0,107,10.6,156.7,31.7c48,20.3,91,49.3,127.9,86.3c37,37,66,80,86.3,127.9
		C791.9,293,802.5,345.7,802.5,400z"/>
	<path class="st11" d="M334.8,763.9c-7.5,9.8-15.3,19.4-23.3,28.9c-23.3-5.2-46-12.5-68.1-21.9c-48-20.3-91-49.3-127.9-86.3
		c-37.1-36.9-66-79.9-86.3-127.9C8.1,507-2.5,454.3-2.5,400S8.1,293,29.2,243.3c20.3-48,49.3-91,86.3-127.9c37-37,80-66,127.9-86.3
		c35-14.9,71.7-24.5,109.4-29c7,10.1,13.7,20.6,20.2,31.1C181.7,45.2,30.3,205.3,30.3,400C30.3,581.6,161.9,733,334.8,763.9z"/>
</g>
</svg>
